<svg xmlns="http://www.w3.org/2000/svg" width="1200" height="760" viewBox="0 0 1200 760" fill="none">
  <rect width="1200" height="760" rx="48" fill="#FFF9EF"/>
  <circle cx="184" cy="118" r="132" fill="#FFE09A"/>
  <circle cx="1018" cy="132" r="118" fill="#D9F5E5"/>
  <rect x="82" y="112" width="466" height="530" rx="38" fill="#14324D"/>
  <rect x="136" y="172" width="282" height="24" rx="12" fill="#FFFFFF"/>
  <rect x="136" y="220" width="228" height="16" rx="8" fill="#9BC4DE"/>
  <rect x="136" y="256" width="304" height="16" rx="8" fill="#9BC4DE"/>
  <rect x="136" y="332" width="358" height="82" rx="26" fill="#FFFFFF"/>
  <rect x="136" y="438" width="358" height="82" rx="26" fill="#FFFFFF"/>
  <rect x="136" y="546" width="220" height="54" rx="18" fill="#FFD66E"/>
  <rect x="374" y="546" width="120" height="54" rx="18" fill="#D9486B"/>
  <rect x="616" y="126" width="502" height="222" rx="36" fill="#FFFFFF"/>
  <rect x="662" y="178" width="262" height="24" rx="12" fill="#14324D"/>
  <rect x="662" y="223" width="350" height="16" rx="8" fill="#8BA5BA"/>
  <rect x="662" y="254" width="314" height="16" rx="8" fill="#8BA5BA"/>
  <rect x="934" y="170" width="136" height="136" rx="28" fill="#DFF3FF"/>
  <circle cx="1002" cy="217" r="26" fill="#FFD66E"/>
  <path d="M972 280C980 248 1023 248 1032 280" stroke="#2A6F97" stroke-width="16" stroke-linecap="round"/>
  <rect x="616" y="382" width="242" height="214" rx="34" fill="#D9F5E5"/>
  <rect x="888" y="382" width="230" height="214" rx="34" fill="#FFE4D5"/>
  <rect x="662" y="430" width="150" height="22" rx="11" fill="#14324D"/>
  <rect x="934" y="430" width="144" height="22" rx="11" fill="#14324D"/>
  <rect x="662" y="476" width="112" height="16" rx="8" fill="#668A80"/>
  <rect x="934" y="476" width="116" height="16" rx="8" fill="#9B7C6D"/>
  <circle cx="736" cy="542" r="42" fill="#FFFFFF"/>
  <path d="M708 542H764" stroke="#2A6F97" stroke-width="12" stroke-linecap="round"/>
  <path d="M736 514V570" stroke="#2A6F97" stroke-width="12" stroke-linecap="round"/>
  <circle cx="1002" cy="542" r="42" fill="#FFFFFF"/>
  <path d="M975 542L994 560L1031 523" stroke="#D9486B" stroke-width="12" stroke-linecap="round" stroke-linejoin="round"/>
</svg>
