<svg xmlns="http://www.w3.org/2000/svg" width="1200" height="760" viewBox="0 0 1200 760" fill="none">
  <rect width="1200" height="760" rx="48" fill="#F5FBFF"/>
  <rect x="70" y="90" width="320" height="260" rx="32" fill="#14324D"/>
  <rect x="120" y="140" width="220" height="22" rx="11" fill="#FFFFFF"/>
  <rect x="120" y="185" width="180" height="16" rx="8" fill="#A9D7FF"/>
  <rect x="120" y="215" width="190" height="16" rx="8" fill="#A9D7FF"/>
  <circle cx="210" cy="272" r="42" fill="#FFD66E"/>
  <circle cx="294" cy="272" r="42" fill="#D9486B"/>
  <rect x="436" y="90" width="320" height="260" rx="32" fill="#FFF4D5"/>
  <rect x="480" y="136" width="230" height="24" rx="12" fill="#14324D"/>
  <rect x="480" y="183" width="170" height="16" rx="8" fill="#6A8096"/>
  <rect x="480" y="215" width="210" height="16" rx="8" fill="#6A8096"/>
  <path d="M524 278L560 312L666 206" stroke="#2A6F97" stroke-width="18" stroke-linecap="round" stroke-linejoin="round"/>
  <rect x="802" y="90" width="328" height="260" rx="32" fill="#D9F5E5"/>
  <rect x="848" y="136" width="234" height="24" rx="12" fill="#14324D"/>
  <rect x="848" y="182" width="196" height="16" rx="8" fill="#598076"/>
  <rect x="848" y="214" width="218" height="16" rx="8" fill="#598076"/>
  <rect x="848" y="250" width="180" height="56" rx="18" fill="#FFFFFF"/>
  <rect x="70" y="390" width="500" height="286" rx="34" fill="#FFFFFF"/>
  <rect x="110" y="438" width="180" height="22" rx="11" fill="#14324D"/>
  <rect x="110" y="480" width="392" height="16" rx="8" fill="#88A8C0"/>
  <rect x="110" y="512" width="362" height="16" rx="8" fill="#88A8C0"/>
  <rect x="110" y="560" width="186" height="76" rx="20" fill="#DFF3FF"/>
  <rect x="316" y="560" width="186" height="76" rx="20" fill="#FFE3D3"/>
  <rect x="610" y="390" width="520" height="286" rx="34" fill="#14324D"/>
  <rect x="654" y="434" width="248" height="22" rx="11" fill="#FFFFFF"/>
  <rect x="654" y="478" width="366" height="16" rx="8" fill="#9AB9D0"/>
  <rect x="654" y="510" width="404" height="16" rx="8" fill="#9AB9D0"/>
  <circle cx="722" cy="594" r="40" fill="#FFD66E"/>
  <circle cx="834" cy="594" r="40" fill="#D9F5E5"/>
  <circle cx="946" cy="594" r="40" fill="#FFB999"/>
  <circle cx="1058" cy="594" r="40" fill="#D9486B"/>
</svg>
